# xmcd
#
# Track frame offsets:
#	150
#	28557
#	56225
#	84583
#	119357
#	151826
#	207663
#	219888
#	272583
#	306833
#	330417
#
# Disc length: 4781 seconds
#
# Revision: 0
# Processed by: cddbd v1.5.1PL0 Copyright (c) Steve Scherf et al.
# Submitted via: EasyCDDAExtractor 8.0.2.1
#
DISCID=9512ab0b
DTITLE=Ozzy Osbourne - Civic Center Charleston NC 30-09-96
DYEAR=1996
DGENRE=Hard Rock
TTITLE0=Paranoid
TTITLE1=I Don't Know
TTITLE2=Goodbye To Romance
TTITLE3=War Pigs
TTITLE4=Mr Crowley
TTITLE5=Suicide Solution
TTITLE6=Sabbath Bloody Sabbath
TTITLE7=Iron Man - Sweet Leaf - Children Of The Grave
TTITLE8=Crazy Train
TTITLE9=Mama I'm Coming Home
TTITLE10=Bark At The Moon
EXTD=
EXTT0=
EXTT1=
EXTT2=
EXTT3=
EXTT4=
EXTT5=
EXTT6=
EXTT7=
EXTT8=
EXTT9=
EXTT10=
PLAYORDER=
